<svg width="1974" height="1974" viewBox="0 0 1974 1974" fill="none" xmlns="http://www.w3.org/2000/svg">
<path d="M987.004 0C1532.11 0 1974 441.89 1974 987C1974 1532.11 1532.11 1974 987.004 1974C441.894 1974 0.00390625 1532.11 0.00390625 987C0.00390625 441.89 441.894 0 987.004 0Z" fill="#84B3FF"/>
<path d="M978 1974C1518.13 1974 1956 1536.13 1956 996C1956 455.866 1518.13 18 978 18C437.866 18 0 455.866 0 996C0 1536.13 437.866 1974 978 1974Z" fill="#4287F5"/>
<path d="M978.002 1641.18C1334.33 1641.18 1623.19 1352.32 1623.19 995.995C1623.19 639.666 1334.33 350.805 978.002 350.805C621.674 350.805 332.812 639.666 332.812 995.995C332.812 1352.32 621.674 1641.18 978.002 1641.18Z" fill="#4287F5"/>
<path d="M978.19 1635.88C1331.48 1635.88 1617.88 1349.48 1617.88 996.19C1617.88 642.899 1331.48 356.5 978.19 356.5C624.899 356.5 338.5 642.899 338.5 996.19C338.5 1349.48 624.899 1635.88 978.19 1635.88Z" stroke="black" stroke-opacity="0.25" stroke-width="11"/>
<path d="M979.5 1646C1338.21 1646 1629 1355.21 1629 996.5C1629 637.791 1338.21 347 979.5 347C620.791 347 330 637.791 330 996.5C330 1355.21 620.791 1646 979.5 1646Z" stroke="url(#paint0_linear_9228_1537)" stroke-opacity="0.25" stroke-width="8"/>
<mask id="mask0_9228_1537" style="mask-type:luminance" maskUnits="userSpaceOnUse" x="0" y="18" width="1957" height="1956">
<path d="M1956 18H0.00390625V1974H1956V18Z" fill="white"/>
</mask>
<g mask="url(#mask0_9228_1537)">
<path d="M977.304 360C625.884 360 341.004 644.88 341.004 996.3C341.004 1347.72 625.884 1632.6 977.304 1632.6C1328.72 1632.6 1613.6 1347.72 1613.6 996.3C1613.6 644.88 1328.72 360 977.304 360Z" fill="black" fill-opacity="0.1"/>
<path d="M1021.72 354.828C837.614 341.948 666.204 407.958 540.594 524.078C663.724 420.688 825.594 363.078 998.594 375.198C1352.59 399.948 1619.59 707.038 1594.82 1061.09C1582.94 1231.04 1506.01 1380.91 1390.05 1488.09C1518.84 1379.96 1605.28 1221.72 1617.94 1040.72C1642.72 686.668 1375.77 379.588 1021.72 354.828Z" fill="black" fill-opacity="0.11"/>
<path d="M437.225 655.156C365.86 760.258 327.801 884.416 328.005 1011.46C328.005 1362.38 612.485 1646.86 963.415 1646.86C1196.93 1646.86 1401.04 1520.86 1511.46 1333.17C1397.18 1501.61 1204.16 1612.29 985.285 1612.29C634.355 1612.29 349.875 1327.8 349.875 976.876C349.696 863.755 379.861 752.655 437.225 655.156Z" fill="black" fill-opacity="0.1"/>
<path d="M417.305 1589.76C415.649 1589.77 414.007 1589.45 412.478 1588.82C410.949 1588.18 409.564 1587.24 408.405 1586.06C250.882 1425.95 162.725 1210.27 163.005 985.66C163.005 818.66 211.005 656.86 301.905 517.66C302.804 516.288 303.965 515.107 305.321 514.183C306.678 513.259 308.203 512.612 309.809 512.278C311.415 511.943 313.072 511.929 314.684 512.235C316.296 512.541 317.832 513.161 319.205 514.06C320.577 514.96 321.759 516.121 322.682 517.477C323.606 518.834 324.253 520.358 324.587 521.965C324.922 523.571 324.936 525.228 324.63 526.84C324.325 528.452 323.704 529.988 322.805 531.361C234.659 666.468 187.815 824.342 188.005 985.66C188.005 1204.96 272.605 1411.96 426.205 1568.46C427.356 1569.63 428.264 1571.02 428.877 1572.55C429.49 1574.08 429.796 1575.71 429.777 1577.35C429.759 1579 429.416 1580.62 428.768 1582.13C428.121 1583.64 427.182 1585.01 426.005 1586.16C424.872 1587.32 423.517 1588.23 422.022 1588.85C420.527 1589.47 418.922 1589.78 417.305 1589.76Z" fill="white"/>
<path d="M1560.48 1575.67C1558.06 1575.66 1555.69 1574.94 1553.66 1573.61C1551.64 1572.27 1550.04 1570.38 1549.07 1568.16C1548.09 1565.94 1547.78 1563.48 1548.18 1561.09C1548.57 1558.69 1549.65 1556.47 1551.28 1554.67C1690.95 1401.55 1768.28 1201.72 1768.08 994.473C1768.08 826.573 1718.28 664.773 1624.18 526.573C1623.26 525.214 1622.61 523.686 1622.27 522.076C1621.94 520.466 1621.92 518.805 1622.23 517.189C1622.54 515.574 1623.16 514.034 1624.06 512.659C1624.96 511.283 1626.12 510.099 1627.48 509.173C1628.84 508.247 1630.37 507.598 1631.98 507.263C1633.59 506.928 1635.25 506.913 1636.87 507.219C1638.48 507.526 1640.02 508.147 1641.4 509.049C1642.77 509.95 1643.96 511.114 1644.88 512.473C1741.88 654.873 1793.18 821.473 1793.18 994.473C1793.39 1207.94 1713.74 1413.76 1569.88 1571.47C1568.69 1572.79 1567.24 1573.84 1565.62 1574.56C1564.01 1575.28 1562.26 1575.66 1560.48 1575.67Z" fill="white"/>
<mask id="mask1_9228_1537" style="mask-type:luminance" maskUnits="userSpaceOnUse" x="0" y="18" width="1957" height="1956">
<path d="M1956 18H0.00390625V1974H1956V18Z" fill="white"/>
</mask>
<g mask="url(#mask1_9228_1537)">
<path d="M976.004 273C1025.71 273 1066 232.706 1066 183C1066 133.294 1025.71 93 976.004 93C926.298 93 886.004 133.294 886.004 183C886.004 232.706 926.298 273 976.004 273Z" fill="white"/>
<path d="M791.004 298C826.902 298 856.004 268.899 856.004 233C856.004 197.101 826.902 168 791.004 168C755.105 168 726.004 197.101 726.004 233C726.004 268.899 755.105 298 791.004 298Z" fill="white"/>
<path d="M1161 298C1196.9 298 1226 268.899 1226 233C1226 197.101 1196.9 168 1161 168C1125.11 168 1096 197.101 1096 233C1096 268.899 1125.11 298 1161 298Z" fill="white"/>
<path d="M978.004 1899C1027.71 1899 1068 1858.71 1068 1809C1068 1759.29 1027.71 1719 978.004 1719C928.298 1719 888.004 1759.29 888.004 1809C888.004 1858.71 928.298 1899 978.004 1899Z" fill="white"/>
<path d="M1163 1824C1198.9 1824 1228 1794.9 1228 1759C1228 1723.1 1198.9 1694 1163 1694C1127.11 1694 1098 1723.1 1098 1759C1098 1794.9 1127.11 1824 1163 1824Z" fill="white"/>
<path d="M793.004 1824C828.902 1824 858.004 1794.9 858.004 1759C858.004 1723.1 828.902 1694 793.004 1694C757.105 1694 728.004 1723.1 728.004 1759C728.004 1794.9 757.105 1824 793.004 1824Z" fill="white"/>
</g>
</g>
<path d="M977.665 460C1002.39 459.989 1026.56 467.31 1047.13 481.038C1067.69 494.767 1083.72 514.285 1093.19 537.125C1102.66 559.965 1105.14 585.1 1100.33 609.351C1095.51 633.603 1083.61 655.881 1066.13 673.368C1048.65 690.855 1026.38 702.766 1002.13 707.594C977.881 712.422 952.745 709.949 929.901 700.49C907.057 691.031 887.531 675.01 873.793 654.452C860.055 633.895 852.723 609.725 852.723 585C852.734 551.861 865.899 520.083 889.327 496.645C912.754 473.207 944.527 460.027 977.665 460Z" fill="white"/>
<path d="M1228.34 1486.85C1217.22 1486.45 1206.16 1485.17 1195.28 1483C1166.16 1476.93 1146.68 1457.77 1135.99 1426.95C1130.78 1412.04 1129.83 1396.2 1129.75 1380.37C1129.59 1293.95 1129.53 1207.54 1129.59 1121.12C1129.59 1119.97 1129.91 1118.74 1129.02 1117.82C1130.07 1107.67 1130.07 1097.45 1129.02 1087.3C1130 1086.06 1129.5 1084.53 1129.5 1083.14C1129.42 1051.77 1129.42 1020.41 1129.09 989.038C1128.69 946.376 1128.93 903.706 1128.85 861.036C1128.85 855.959 1129.67 850.963 1130 845.967C1130.24 842.045 1132.04 838.359 1131.14 834.282C1137.79 816.137 1143.53 797.609 1150.91 779.854C1151.17 779.295 1151.46 778.752 1151.78 778.227C1164.74 761.465 1181.72 753.238 1200.66 749.17C1208.7 747.396 1216.99 747.095 1224.96 744.629C1227.78 743.74 1230.2 741.993 1231.83 739.666C1233.47 737.34 1234.23 734.567 1233.99 731.789C1233.42 725.028 1228.78 720.032 1222.51 719.796C1216.23 719.56 1210.12 719.259 1203.97 719.104C1193.39 718.876 1182.89 719.031 1172.31 719.486C1155.69 720.224 1139.3 723.364 1123.7 728.795C1101.14 736.786 1079.09 746.859 1056.88 756.005C1029.44 767.242 1001.39 773.158 972.159 772.01C955.105 771.319 938.615 767.47 922.298 762.246C903.595 756.168 885.551 747.599 867.256 740.333C842.408 730.414 817.23 721.96 790.733 719.885C773.427 718.575 756.121 718.884 738.815 719.804C732.34 720.194 728.235 725.955 728.487 732.872C728.73 739.105 732.748 743.637 739.969 745.256C748.822 747.25 757.848 747.795 766.7 750.016C785.898 754.784 801.729 765.623 813.619 783.378C827.237 803.525 832.323 826.812 832.401 851.418C832.644 1002.18 832.699 1152.97 832.566 1303.78C832.566 1328.84 833.798 1354.06 829.094 1378.82C825.57 1387.05 821.882 1395.1 818.757 1403.57C811.623 1422.57 805.635 1442.09 796.287 1459.93C796.044 1460.31 795.957 1460.93 796.617 1461C796.044 1462.92 794.317 1463.39 793.085 1464.54C784.406 1473 774.633 1479.46 763.394 1482.53C752.979 1485.37 742.399 1486.38 731.741 1486.76C723.696 1487.07 718.723 1491.91 718.723 1499.78C718.723 1508.47 723.809 1514 731.932 1514H1228.19C1235.57 1514 1240.74 1509.61 1241.21 1499.55C1241.54 1492.92 1235.47 1487.08 1228.34 1486.85Z" fill="white"/>
<path d="M934.619 1052.36L960.709 1123.78L788.724 1472.81L1045.83 1143.39L1022.32 1040.51L1166.63 760.969L934.619 1052.36Z" fill="#4382EA"/>
<defs>
<linearGradient id="paint0_linear_9228_1537" x1="1456.01" y1="482.44" x2="523.51" y2="1488.44" gradientUnits="userSpaceOnUse">
<stop stop-color="white"/>
<stop offset="0.25" stop-color="#999999"/>
<stop offset="0.74" stop-color="#999999"/>
<stop offset="1" stop-color="white"/>
</linearGradient>
</defs>
</svg>
